<svg t="1668741025521" class="icon" viewBox="0 0 1024 1024" version="1.1" xmlns="http://www.w3.org/2000/svg" p-id="14116" width="30" height="30">
  <path d="M532.257 112.406l381.837 381.837c7.81 7.81 7.81 20.474 0 28.285-7.81 7.81-20.474 7.81-28.284 0l-25.456-25.456-348.603 348.603c-91.383 91.383-239.544 91.383-330.926 0-91.383-91.382-91.383-239.543 0-330.926l348.603-348.603-25.456-25.456c-7.81-7.81-7.81-20.474 0-28.284 7.81-7.81 20.474-7.81 28.285 0zM375.279 522.528c-15.621 15.62-15.621 40.947 0 56.568 15.62 15.621 40.947 15.621 56.568 0 15.621-15.62 15.621-40.947 0-56.568-15.62-15.621-40.947-15.621-56.568 0z m100.41-148.493c-29.68 29.68-29.68 77.8 0 107.48 29.679 29.68 77.8 29.68 107.48 0 29.68-29.68 29.68-77.8 0-107.48-29.68-29.68-77.801-29.68-107.48 0z" fill="#7EDEC6" p-id="14117"></path>
  <path d="M224.665 547.276l139.13 7.85a39.832 39.832 0 0 0 11.484 23.97c15.62 15.621 40.947 15.621 56.568 0a39.813 39.813 0 0 0 10.75-19.523l263.993 14.896-233.023 233.023c-70.295 70.294-184.264 70.294-254.559 0-70.294-70.295-70.294-184.264 0-254.559l5.657-5.657z" fill="#03AD82" p-id="14118"></path>
</svg>